<svg width="108" height="108" viewBox="0 0 108 108" fill="none" xmlns="http://www.w3.org/2000/svg">
<path d="M54 0L64.8145 6.6185L77.4297 5.34768L84.3016 16.003L96.2189 20.3316L97.7871 32.9132L106.646 41.9839L102.6 54L106.646 66.0161L97.7871 75.0867L96.2189 87.6684L84.3016 91.997L77.4297 102.652L64.8145 101.382L54 108L43.1855 101.382L30.5703 102.652L23.6984 91.997L11.7811 87.6684L10.2129 75.0867L1.35389 66.0161L5.4 54L1.35389 41.9839L10.2129 32.9132L11.7811 20.3316L23.6984 16.003L30.5703 5.34768L43.1855 6.6185L54 0Z" fill="#F0D793"/>
<ellipse cx="54" cy="54.5" rx="35" ry="35.5" fill="white"/>
<path d="M51.2968 32.6163C52.3871 30.3511 55.6129 30.3511 56.7032 32.6163L61.2111 41.9822C61.6439 42.8814 62.4955 43.5065 63.4831 43.6499L73.7114 45.1354C76.1633 45.4915 77.1511 48.498 75.3882 50.2389L67.9007 57.6331C67.2034 58.3217 66.8864 59.3075 67.0517 60.2735L68.8323 70.6811C69.2539 73.1455 66.6529 75.014 64.452 73.8279L55.4233 68.962C54.5348 68.4832 53.4652 68.4832 52.5768 68.962L43.5481 73.8279C41.3471 75.014 38.7461 73.1455 39.1678 70.6811L40.9484 60.2735C41.1136 59.3075 40.7966 58.3217 40.0993 57.6331L32.6118 50.2389C30.8489 48.498 31.8367 45.4915 34.2886 45.1354L44.5169 43.6499C45.5045 43.5065 46.3561 42.8814 46.7889 41.9822L51.2968 32.6163Z" fill="#8E4A63"/>
</svg>
