<svg width="42" height="42" viewBox="0 0 42 42" fill="none" xmlns="http://www.w3.org/2000/svg">
<path d="M23.2705 2.11685C20.4967 2.13946 17.2807 2.76546 14.8929 4.00105C9.56808 6.75437 8.77131 11.29 8.77131 11.29C8.74129 11.401 8.68966 11.7389 8.80931 11.8832C8.93132 12.03 9.10894 12.0276 9.32909 11.9563C11.2083 11.3471 16.8102 9.56412 20.3449 8.66384C25.3752 7.38401 29.5076 6.60613 32.16 6.17251C32.3483 6.14184 32.5168 6.08177 32.5879 5.91554C32.6895 5.67538 32.4829 5.44073 32.4829 5.44073C32.4829 5.44073 30.856 2.7863 25.104 2.19746C24.5266 2.13838 23.9107 2.11164 23.2705 2.11685ZM23.1997 2.59923C26.3576 2.59304 29.5119 3.91474 29.484 5.06668C29.4668 5.81281 28.5103 5.87366 26.7697 6.2834C27.4504 6.08708 27.9602 5.58946 27.9536 5.02509C27.9422 4.13288 25.8634 2.85295 22.3977 2.63079C22.6646 2.61024 22.9321 2.59972 23.1997 2.59923ZM16.0767 3.94944C14.0967 5.11121 12.0118 7.48006 11.3307 9.99263C11.2595 10.5741 10.504 10.4949 10.5512 9.94731C10.6708 8.56986 12.8496 5.31657 16.0767 3.94944Z" fill="#8E4A63"/>
<path d="M38.332 27.2931C35.3212 33.7819 29.5448 38.2977 21.9746 38.4007C16.462 38.4757 11.597 36.6633 8.08357 33.502L5.95857 34.3745L5.96205 31.2173C3.64693 28.2204 2.30457 24.4298 2.30457 20.1236C2.30457 9.09417 11.1076 0.4001 23.3847 0.4001C25.3886 0.4001 27.1997 0.69934 28.5652 0.99622C26.4613 0.350161 24.3709 7.06903e-10 22.0438 7.06903e-10C8.86763 -9.8304e-05 0.000512195 10.2528 0 20.8262C0 32.3486 9.41927 42 21.7827 42C33.5915 42 39.9626 34.0105 42 29.2054L38.332 27.2931Z" fill="#8E4A63"/>
<path d="M35.2756 25.0134C37.0083 24.8247 38.2071 24.1564 38.865 23.5365C39.4647 22.9712 39.6046 22.1927 39.6054 21.6144C39.6296 20.7646 39.6054 18.0834 39.6054 18.0834L35.0201 19.0354C35.0201 19.0354 35.0197 19.3671 35.0183 20.0634C35.0267 20.7434 35.3684 21.1136 36.1111 20.9825C36.3438 20.9459 36.7021 20.8363 36.7021 20.8363L36.7084 21.6766C36.7044 21.6525 36.7762 22.1451 35.6206 22.3644C34.1084 22.5922 33.4211 21.6993 33.4032 20.1213C33.433 18.4303 34.4294 17.455 35.6381 17.1879C36.998 16.8887 37.7677 17.1996 38.22 17.2658C39.7387 17.484 40.1695 15.2989 38.7879 14.7863C37.7666 14.3915 36.4415 14.3202 35.1784 14.5622C33.4919 14.8849 30.1751 16.2397 30.166 20.6414C30.1749 24.1388 32.862 25.2788 35.2756 25.0134ZM20.3701 28.7622C20.3701 28.7622 21.777 28.2991 21.8987 28.2581C23.0295 27.8837 23.4415 27.2384 23.4364 26.1216C23.4221 24.9091 23.42 22.5445 23.42 22.5445L26.6914 26.1619C27.2228 26.6885 27.8888 26.7335 28.4986 26.5618C29.129 26.3846 29.6539 25.8315 29.6698 25.0515C29.6749 22.4393 29.6685 16.0642 29.6685 16.0642C29.6685 16.0642 28.8231 16.2363 28.1213 16.4272C27.314 16.6467 26.6928 17.1408 26.6928 18.4449C26.6928 18.9067 26.691 21.5562 26.691 21.5562C26.691 21.5562 24.8498 19.3403 23.6459 18.1845C23.0021 17.5675 21.9371 17.9358 21.9371 17.9358L20.3674 18.3917L20.3701 28.7622ZM19.3796 18.6252C19.3796 18.6252 18.3943 18.9025 17.5925 19.1804C16.5515 19.5415 15.9514 20.1197 15.9514 21.6319C15.9514 23.0208 15.9488 30.2501 15.9488 30.2501C15.9488 30.2501 16.8608 29.9509 17.7111 29.6431C18.9199 29.2058 19.3759 28.6091 19.3759 27.391C19.376 26.344 19.3796 18.6252 19.3796 18.6252ZM14.4904 20.676C13.5861 20.2818 12.8099 20.7214 12.4802 21.2073L9.70063 25.7441L9.69572 22.0866L6.419 23.3892L6.40875 33.732L8.71691 32.8034C8.71691 32.8034 9.17 32.6801 9.44351 32.2679C9.69479 31.888 9.68547 31.2509 9.68547 31.2509L9.68834 27.9712L12.2681 30.598C12.8345 31.1625 13.8752 31.4524 14.7936 30.7406C15.624 30.0971 15.4954 28.9999 15.0322 28.5086L12.6821 26.2384C12.6821 26.2384 14.7503 23.1105 15.0884 22.5879C15.5372 21.8937 15.3114 21.0339 14.4904 20.676ZM36.019 25.7258C35.9366 25.7271 35.8449 25.742 35.742 25.7648C29.6454 27.1401 19.5003 30.1121 13.6513 32.5172C13.3995 32.6207 13.286 32.6582 13.2077 32.8333C13.0857 33.103 13.364 33.3711 13.364 33.3711C14.5565 34.8073 19.8513 36.6276 25.5991 35.2944C34.3769 33.2572 36.2315 27.2977 36.4416 26.4563C36.4847 26.2847 36.5196 26.0084 36.3537 25.8429C36.2667 25.7564 36.1561 25.7234 36.019 25.7258ZM33.9242 27.3858C34.2853 27.3847 34.5965 27.7281 34.3586 28.2121C32.9701 31.0327 30.4603 32.9156 27.8486 33.9014C30.7906 32.2975 32.4604 29.9428 33.2732 27.9375C33.406 27.5486 33.6771 27.3866 33.9242 27.3858ZM8.00127 19.2786C7.99328 18.7085 7.53138 18.3975 6.73338 18.7818L6.73174 20.6145C6.73174 20.6145 6.98979 20.5049 7.1791 20.4203C7.6456 20.2126 8.01223 19.839 8.00127 19.2786ZM6.71761 17.622C6.84187 17.5758 6.96387 17.5245 7.08352 17.4682C7.51592 17.2662 7.82354 16.8914 7.82712 16.4062C7.83153 15.8536 7.35744 15.7108 6.71853 16.0277L6.71761 17.622ZM10.0959 19.0168C10.1219 20.4631 9.03621 21.2327 7.62184 21.795L4.72466 22.9761L4.7179 15.4438C4.7179 15.4438 6.54326 14.7297 7.13873 14.5218C8.83154 13.9307 9.82684 14.6432 9.82684 15.7284C9.82684 16.4525 9.50385 17.068 8.80286 17.6089C9.4933 17.7194 10.0827 18.2636 10.0959 19.0168ZM15.5956 12.6592C15.5956 12.0248 15.1409 11.8561 14.5909 12.008C14.1462 12.1301 13.6283 12.3242 13.6283 12.3242L13.6248 17.0069C13.6194 17.4734 13.5442 18.0572 12.9454 18.2019C12.4857 18.3131 12.2685 18.0188 12.268 17.5532L12.2614 13.7204C12.2614 13.0827 11.7991 12.8918 11.2508 13.0664C10.6346 13.2639 10.2643 13.406 10.2643 13.406C10.2643 13.406 10.2714 16.722 10.2629 18.0481C10.255 19.6025 11.3719 20.3786 13.0742 19.8961C14.5759 19.47 15.5786 18.6636 15.5976 16.5934L15.5956 12.6592ZM31.697 14.5945C32.1296 14.505 32.3995 14.2114 32.3995 13.7041C32.3995 13.2471 32.4013 12.8996 32.4013 12.8996L30.0513 13.3923L30.0556 12.0655C30.0556 12.0655 31.2074 11.8312 31.5273 11.7642C31.9293 11.6797 32.1398 11.4694 32.1398 11.0286C32.1398 10.6175 32.1371 10.2617 32.1371 10.2617L30.0549 10.6856L30.0544 9.63369C30.0544 9.63369 31.1369 9.41683 31.7202 9.29916C32.1746 9.20754 32.3246 8.90879 32.3246 8.49778C32.3246 8.23009 32.329 7.70033 32.329 7.70033C31.2904 7.87629 29.316 8.25487 28.0846 8.5255L28.0678 15.3919C28.0678 15.3919 30.4092 14.8627 31.697 14.5945ZM18.117 14.3172C18.1187 14.3159 19.2796 13.7405 19.2669 12.8275C19.2554 12.0469 18.5062 12.2177 18.1175 12.3546L18.117 14.3172ZM18.12 15.3764C18.12 15.3764 18.1161 16.6914 18.1142 17.2219C18.1094 17.7193 17.7555 18.0787 17.3073 18.2429C16.9327 18.3663 16.1367 18.6292 16.1367 18.6292L16.1397 11.5585C16.1397 11.5585 17.7836 11.009 18.7503 10.7934C20.2525 10.4581 21.3208 11.1141 21.3015 12.2785C21.2922 13.3872 20.6478 14.0599 20.0688 14.5204L21.341 15.6926C21.7319 16.056 21.7592 16.7131 21.3195 17.1103C21.0588 17.3453 20.3615 17.5889 19.8156 17.0557L18.12 15.3764ZM34.7527 10.5142C34.7551 10.5142 35.8995 10.0959 35.8865 9.2153C35.8746 8.47054 35.1104 8.60532 34.7497 8.68269L34.7527 10.5142ZM32.8322 14.3887L32.8353 7.6089C32.8353 7.6089 34.8981 7.25894 35.4309 7.19317C36.9097 7.01092 37.9019 7.79853 37.8816 8.91744C37.8737 9.90137 37.2296 10.4936 36.682 10.8487C36.682 10.8487 37.688 11.9363 37.9575 12.224C38.3196 12.6118 38.3035 13.2749 37.7678 13.5996C37.2413 13.9182 36.7196 13.7516 36.4168 13.4306L34.7562 11.5616C34.7562 11.5616 34.7615 12.7111 34.7602 13.2131C34.7553 13.7126 34.4541 14.0769 33.9141 14.184L32.8322 14.3887Z" fill="#8E4A63"/>
<path d="M27.6052 11.5432L24.6789 12.1809C24.6789 12.1809 24.6754 12.4776 24.6749 12.9619C24.6789 13.3251 24.9443 13.5609 25.3262 13.4854C25.5671 13.4374 25.7598 13.3945 25.7598 13.3945L25.7642 14.1745C25.7672 14.4831 25.2848 14.6851 24.7838 14.674C24.0817 14.6565 23.6924 14.133 23.6824 13.1368C23.7042 11.827 24.3463 11.058 25.2209 10.8433C25.6577 10.7354 26.0552 10.788 26.3639 10.8264C27.1179 10.9433 27.552 10.5944 27.5675 9.99654C27.5832 9.35608 26.9913 8.96001 25.7206 9.00229C22.9656 9.09361 21.5569 10.9932 21.5569 13.2601C21.5569 15.5817 23.1373 16.6072 25.0664 16.2727C26.1566 16.0617 26.6988 15.722 27.0747 15.4058C27.4503 15.0896 27.6052 14.6166 27.6052 14.2127V11.5432Z" fill="#8E4A63"/>
</svg>
