<svg width="207" height="168" viewBox="0 0 207 168" fill="none" xmlns="http://www.w3.org/2000/svg">
<path d="M111.448 11.2788C97.2194 11.3996 80.7232 14.7452 68.4747 21.3485C41.1613 36.0631 37.0743 60.3025 37.0743 60.3025C36.9203 60.8962 36.6555 62.7019 37.2692 63.4731C37.8951 64.2575 38.8062 64.2449 39.9354 63.8635C49.575 60.6078 78.3097 51.0792 96.4407 46.2678C122.244 39.4281 143.441 35.2708 157.046 32.9534C158.012 32.7895 158.876 32.4685 159.241 31.5801C159.762 30.2966 158.702 29.0426 158.702 29.0426C158.702 29.0426 150.358 14.8566 120.852 11.7096C117.891 11.3939 114.731 11.251 111.448 11.2788ZM111.085 13.8568C127.283 13.8237 143.463 20.8873 143.32 27.0435C143.231 31.0311 138.325 31.3563 129.397 33.546C132.889 32.4969 135.503 29.8374 135.47 26.8213C135.411 22.0531 124.748 15.2128 106.971 14.0254C108.34 13.9156 109.712 13.8594 111.085 13.8568ZM74.5474 21.0727C64.3908 27.2815 53.6962 39.9413 50.2029 53.3692C49.8377 56.4768 45.9619 56.0533 46.2042 53.127C46.8179 45.7656 57.9939 28.379 74.5474 21.0727Z" fill="white"/>
<path d="M188.705 145.826C173.261 180.504 143.632 204.638 104.8 205.188C76.5234 205.589 51.5688 195.903 33.5466 179.009L22.6464 183.671L22.6643 166.798C10.7889 150.782 3.90329 130.524 3.90329 107.51C3.90329 48.5657 49.0581 2.10212 112.033 2.10212C122.312 2.10212 131.603 3.70134 138.607 5.28795C127.815 1.83523 117.092 -0.0361328 105.155 -0.0361328C37.5684 -0.0366582 -7.91534 54.7577 -7.91797 111.265C-7.91797 172.844 40.398 224.424 103.816 224.424C164.389 224.424 197.07 181.726 207.52 156.046L188.705 145.826Z" fill="white"/>
<path d="M173.028 133.643C181.916 132.635 188.065 129.063 191.44 125.75C194.516 122.729 195.234 118.569 195.238 115.478C195.362 110.937 195.238 96.6071 195.238 96.6071L171.717 101.695C171.717 101.695 171.715 103.468 171.708 107.189C171.751 110.823 173.504 112.802 177.313 112.101C178.507 111.905 180.345 111.32 180.345 111.32L180.377 115.81C180.357 115.682 180.725 118.314 174.797 119.486C167.041 120.704 163.515 115.932 163.423 107.499C163.576 98.4611 168.687 93.2489 174.887 91.8215C181.863 90.2223 185.811 91.884 188.131 92.2376C195.921 93.4039 198.131 81.726 191.044 78.9867C185.805 76.8769 179.008 76.4954 172.529 77.7889C163.878 79.5137 146.865 86.7538 146.818 110.278C146.864 128.969 160.647 135.061 173.028 133.643ZM96.5701 153.678C96.5701 153.678 103.787 151.203 104.411 150.984C110.212 148.983 112.325 145.534 112.299 139.566C112.226 133.086 112.215 120.449 112.215 120.449L128.995 139.781C131.721 142.595 135.137 142.836 138.265 141.918C141.499 140.971 144.191 138.016 144.273 133.847C144.299 119.887 144.266 85.816 144.266 85.816C144.266 85.816 139.93 86.7359 136.33 87.7562C132.189 88.9293 129.003 91.5698 129.003 98.5394C129.003 101.007 128.993 115.167 128.993 115.167C128.993 115.167 119.549 103.324 113.373 97.1477C110.071 93.8499 104.608 95.8185 104.608 95.8185L96.5564 98.2546L96.5701 153.678ZM91.4894 99.5029C91.4894 99.5029 86.4356 100.985 82.3228 102.47C76.9831 104.4 73.9044 107.49 73.9044 115.571C73.9044 122.994 73.8913 161.63 73.8913 161.63C73.8913 161.63 78.5694 160.031 82.9308 158.386C89.1317 156.048 91.4705 152.859 91.4705 146.35C91.471 140.754 91.4894 99.5029 91.4894 99.5029ZM66.4103 110.463C61.7721 108.356 57.7902 110.705 56.0992 113.302L41.8414 137.548L41.8162 118.002L25.0083 124.963L24.9558 180.238L36.7954 175.275C36.7954 175.275 39.1195 174.616 40.5225 172.413C41.8115 170.383 41.7636 166.978 41.7636 166.978L41.7784 149.45L55.011 163.489C57.9168 166.506 63.2549 168.055 67.9657 164.251C72.2251 160.812 71.5656 154.948 69.1895 152.322L57.1349 140.19C57.1349 140.19 67.7434 123.473 69.478 120.681C71.78 116.97 70.6219 112.376 66.4103 110.463ZM176.841 137.45C176.418 137.458 175.948 137.537 175.42 137.659C144.148 145.009 92.1084 160.892 62.1063 173.745C60.8147 174.299 60.2325 174.499 59.831 175.435C59.2052 176.876 60.6324 178.309 60.6324 178.309C66.7498 185.984 93.9092 195.713 123.392 188.588C168.418 177.7 177.931 145.851 179.009 141.354C179.23 140.438 179.409 138.961 178.558 138.076C178.111 137.614 177.544 137.438 176.841 137.45ZM166.096 146.322C167.948 146.316 169.544 148.152 168.324 150.738C161.202 165.812 148.328 175.875 134.931 181.143C150.022 172.572 158.587 159.988 162.756 149.271C163.438 147.192 164.828 146.326 166.096 146.322ZM33.1246 102.995C33.0836 99.9479 30.7143 98.2856 26.621 100.34L26.6126 110.134C26.6126 110.134 27.9362 109.548 28.9072 109.096C31.3002 107.986 33.1808 105.99 33.1246 102.995ZM26.54 94.1415C27.1774 93.8946 27.8032 93.6204 28.417 93.3193C30.6349 92.2397 32.2129 90.237 32.2313 87.6438C32.2539 84.6907 29.8221 83.9273 26.5448 85.6211L26.54 94.1415ZM43.8692 101.595C44.0021 109.325 38.4333 113.438 31.1783 116.443L16.3172 122.755L16.2825 82.5004C16.2825 82.5004 25.6457 78.6841 28.7002 77.573C37.3834 74.4139 42.4888 78.2218 42.4888 84.0214C42.4888 87.8912 40.832 91.1806 37.2363 94.0711C40.7779 94.6622 43.8014 97.5701 43.8692 101.595ZM72.0795 67.6188C72.0795 64.2286 69.747 63.3266 66.9258 64.1388C64.6448 64.7913 61.9886 65.8284 61.9886 65.8284L61.9702 90.8543C61.9429 93.3472 61.5572 96.4673 58.4853 97.2407C56.1276 97.8349 55.0131 96.2619 55.0105 93.7738L54.9769 73.2902C54.9769 69.8821 52.6054 68.8618 49.7932 69.7949C46.632 70.8504 44.7325 71.61 44.7325 71.61C44.7325 71.61 44.7693 89.3318 44.7257 96.4185C44.6852 104.726 50.4143 108.873 59.1458 106.295C66.8491 104.017 71.9923 99.7078 72.09 88.6441L72.0795 67.6188ZM154.671 77.9617C156.89 77.4831 158.275 75.9144 158.275 73.203C158.275 70.7605 158.284 68.9033 158.284 68.9033L146.23 71.5365L146.252 64.4461C146.252 64.4461 152.16 63.1936 153.801 62.8358C155.863 62.384 156.943 61.2603 156.943 58.9045C156.943 56.7074 156.929 54.8056 156.929 54.8056L146.248 57.0715L146.246 51.4495C146.246 51.4495 151.799 50.2906 154.79 49.6617C157.121 49.1721 157.891 47.5755 157.891 45.3789C157.891 43.9483 157.913 41.1171 157.913 41.1171C152.586 42.0575 142.458 44.0807 136.142 45.5271L136.056 82.223C136.056 82.223 148.066 79.3949 154.671 77.9617ZM85.0132 76.4797C85.0216 76.4728 90.9766 73.3973 90.9114 68.5182C90.8526 64.3463 87.0094 65.2594 85.0158 65.9907L85.0132 76.4797ZM85.0284 82.14C85.0284 82.14 85.0084 89.1679 84.9984 92.0033C84.9743 94.6616 83.1588 96.5819 80.8599 97.4598C78.9383 98.1191 74.855 99.5239 74.855 99.5239L74.8707 61.7363C74.8707 61.7363 83.3028 58.7994 88.2615 57.6473C95.9669 55.8553 101.447 59.3611 101.348 65.5841C101.3 71.5092 97.9946 75.1043 95.0247 77.5656L101.55 83.8301C103.556 85.7724 103.696 89.284 101.44 91.4065C100.103 92.6626 96.526 93.9645 93.7258 91.1149L85.0284 82.14ZM170.346 56.1553C170.358 56.1553 176.228 53.9198 176.161 49.2136C176.1 45.2334 172.181 45.9537 170.33 46.3671L170.346 56.1553ZM160.494 76.8616L160.51 40.6285C160.51 40.6285 171.091 38.7582 173.824 38.4067C181.41 37.4327 186.499 41.642 186.395 47.6217C186.355 52.8801 183.051 56.0449 180.242 57.9431C180.242 57.9431 185.402 63.7552 186.785 65.293C188.642 67.3656 188.559 70.9092 185.811 72.6445C183.111 74.3472 180.435 73.4567 178.882 71.7414L170.364 61.7531C170.364 61.7531 170.391 67.8962 170.384 70.5787C170.359 73.2487 168.814 75.1952 166.044 75.7678L160.494 76.8616Z" fill="white"/>
<path d="M133.683 61.6543L118.673 65.0623C118.673 65.0623 118.655 66.6479 118.652 69.2364C118.673 71.1776 120.034 72.4374 121.993 72.034C123.228 71.7776 124.217 71.5485 124.217 71.5485L124.239 75.7168C124.255 77.3659 121.781 78.4456 119.211 78.3862C115.609 78.2927 113.612 75.4951 113.561 70.171C113.673 63.171 116.966 59.0616 121.453 57.9142C123.693 57.3373 125.732 57.6184 127.316 57.8238C131.183 58.4485 133.41 56.5839 133.489 53.3886C133.57 49.9658 130.534 47.8491 124.016 48.0751C109.884 48.5631 102.658 58.7148 102.658 70.8298C102.658 83.2375 110.765 88.7181 120.66 86.9303C126.252 85.8028 129.034 83.9872 130.961 82.297C132.888 80.6075 133.683 78.0794 133.683 75.9212V61.6543Z" fill="white"/>
</svg>
