<svg width="18" height="18" viewBox="0 0 18 18" fill="none" xmlns="http://www.w3.org/2000/svg">
<path d="M1.97461 6.59082L9.07209 9.63895V17.9995L1.97461 14.9514V6.59082Z" fill="#C0C0C0"/>
<path d="M1.97461 5.19824L9.07209 8.24637L9.07209 10.2494L1.97461 7.2013L1.97461 5.19824Z" fill="#B4B4B4"/>
<path d="M16.1699 6.59082L9.07244 9.63895V17.9995L16.1699 14.9514V6.59082Z" fill="#D9D9D9"/>
<path d="M9.07244 2.32422L1.97496 5.19817L9.07244 8.33338L16.1699 5.19817L9.07244 2.32422Z" fill="#D9D9D9"/>
<path d="M16.1694 5.19824L9.07195 8.33346V10.2494L16.1694 7.2013V5.19824Z" fill="#CFCFCF"/>
<path d="M4.39844 6.24316L5.95642 6.93988V16.6939L4.39844 15.9972V6.24316Z" fill="#D5D5D5"/>
<path d="M13.5729 6.3302L12.0149 7.02691V16.7809L13.5729 16.0842V6.3302Z" fill="#EEEEEE"/>
<path d="M6.64872 3.28195L5.00417 3.97876L12.0151 7.02688L13.5731 6.33017L6.64872 3.28195Z" fill="#E7E7E7"/>
<path d="M11.282 3.19818L12.9671 3.89152L5.92493 6.95297L4.40428 6.26445L11.282 3.19818Z" fill="#E6E6E6"/>
<path d="M11.075 2.67191C11.075 2.29282 10.8049 1.9675 10.4323 1.89774C9.83353 1.78564 9.33957 2.36672 9.54663 2.93965L9.8233 3.70518L10.4482 3.53752C10.8179 3.43832 11.075 3.10324 11.075 2.72044V2.67191ZM12.4364 2.72044C12.4364 3.71922 11.7657 4.59358 10.801 4.85241L9.70239 5.14718C9.5146 5.19757 9.32516 5.27437 9.13 5.37281C8.62827 5.62589 7.53354 6.13906 6.62571 6.22387C5.89485 6.29215 5.03657 6.10964 4.41729 5.93989C4.09589 5.85179 3.81511 5.76026 3.61445 5.6907C3.51389 5.65583 3.4328 5.62626 3.37604 5.6051C3.34765 5.59451 3.32527 5.58602 3.30957 5.57998C3.30173 5.57697 3.29556 5.57455 3.29111 5.57282C3.28888 5.57195 3.28707 5.57128 3.28571 5.57075C3.28504 5.57049 3.28447 5.57026 3.28402 5.57009C3.28379 5.57 3.2836 5.56986 3.28342 5.56979C3.28335 5.56976 3.28325 5.56974 3.2832 5.56972C3.28329 5.56921 3.28989 5.55218 3.53299 4.93654C3.77425 4.32555 3.78263 4.3042 3.78285 4.30343L3.7827 4.30335L3.78263 4.30328C3.78263 4.30328 3.78273 4.30335 3.78292 4.30343C3.78334 4.30359 3.78418 4.3039 3.78544 4.30439C3.78797 4.30538 3.79223 4.30702 3.79806 4.30926C3.80973 4.31375 3.82783 4.32065 3.85176 4.32957C3.89967 4.34744 3.97077 4.37341 4.06033 4.40446C4.23998 4.46674 4.49134 4.54866 4.77712 4.627C5.37221 4.79012 6.02866 4.91239 6.49911 4.86844C7.11863 4.81055 8.00082 4.41765 8.51691 4.15734C8.52317 4.15418 8.52952 4.1511 8.53581 4.14796L8.26638 3.40229C7.70145 1.83909 9.04901 0.253834 10.6828 0.559656C11.6995 0.749976 12.4364 1.63756 12.4364 2.67191V2.72044Z" fill="#B4B4B4"/>
<path d="M7.3293 2.67191C7.3293 2.29282 7.5994 1.9675 7.97201 1.89774C8.57081 1.78564 9.06477 2.36672 8.85771 2.93965L8.58104 3.70518L7.95613 3.53752C7.58641 3.43832 7.32931 3.10324 7.3293 2.72044V2.67191ZM14.5732 3.85245C14.5731 3.85249 14.5731 3.85256 14.573 3.8526L14.5733 3.85245H14.5732ZM5.96796 2.72044C5.96797 3.71921 6.63866 4.59358 7.60331 4.85241L8.42912 5.07399C8.73719 5.15665 9.04184 5.32507 9.35537 5.55524C9.59488 5.73108 9.90411 5.93533 10.2425 6.09795C10.5725 6.2565 10.9823 6.40106 11.4092 6.40106C12.3864 6.40105 13.3854 6.02069 14.0944 5.68102C14.4584 5.50658 14.7668 5.33262 14.9848 5.20191C15.094 5.1364 15.1813 5.08127 15.2423 5.04186C15.2728 5.02214 15.2968 5.00633 15.3138 4.99503C15.3222 4.98938 15.329 4.98482 15.3338 4.98152C15.3363 4.97986 15.3383 4.97849 15.3398 4.97745C15.3406 4.97694 15.3412 4.97648 15.3418 4.97612C15.342 4.97596 15.3422 4.97581 15.3424 4.97568C15.3425 4.97561 15.3427 4.9755 15.3427 4.97546C15.3425 4.97496 15.3323 4.95975 14.9579 4.41399L14.573 3.8526C14.5726 3.85287 14.572 3.85334 14.571 3.854C14.5686 3.85564 14.5644 3.85844 14.5585 3.86235C14.5467 3.87019 14.5282 3.88247 14.5035 3.89847C14.4539 3.93049 14.3796 3.97743 14.2846 4.03437C14.0942 4.14859 13.8236 4.30122 13.5061 4.45336C12.8518 4.76684 12.0765 5.03971 11.4092 5.03972C11.2734 5.03972 11.0772 4.9886 10.8322 4.87088C10.5956 4.75722 10.3608 4.60453 10.161 4.45787C10.058 4.38225 9.94986 4.30767 9.8367 4.23607L10.138 3.40229C10.7029 1.83909 9.35533 0.25383 7.72156 0.559657C6.70487 0.749977 5.96796 1.63756 5.96796 2.67191V2.72044Z" fill="#C0C0C0"/>
</svg>
