<svg width="12" height="12" viewBox="0 0 12 12" fill="none" xmlns="http://www.w3.org/2000/svg">
<path d="M4.69012 0.583938C5.04636 -0.194649 6.15256 -0.194649 6.50879 0.583938L7.42385 2.58388C7.56404 2.89027 7.84909 3.10547 8.18217 3.15635L10.3489 3.48737C11.1504 3.60983 11.4806 4.58524 10.9183 5.16942L9.26172 6.89032C9.04336 7.11716 8.94459 7.43359 8.99513 7.74437L9.379 10.1046C9.51377 10.9333 8.62912 11.5491 7.89878 11.135L6.09264 10.1111C5.78672 9.93766 5.41219 9.93766 5.10627 10.1111L3.30013 11.135C2.56979 11.5491 1.68515 10.9333 1.81992 10.1046L2.20378 7.74436C2.25432 7.43359 2.15555 7.11716 1.9372 6.89032L0.280623 5.16942C-0.281717 4.58524 0.0484862 3.60983 0.850044 3.48737L3.01675 3.15635C3.34982 3.10547 3.63487 2.89027 3.77506 2.58388L4.69012 0.583938Z" fill="white"/>
</svg>
