<svg width="118" height="139" viewBox="0 0 118 139" fill="none" xmlns="http://www.w3.org/2000/svg">
<path d="M24.8538 39.7243C28.8962 42.0444 33.1841 45.0303 36.4483 48.1945L35.1659 49.4775C28.7248 48.7956 21.9409 49.6466 15.8348 49.7404C15.1539 49.0562 13.782 48.0276 15.0597 47.1682L24.8538 39.7243ZM138.746 119.396C138.832 122.291 139.105 124.777 137.971 127.74C126.203 131.072 118.474 118.666 107.056 120.537L108.347 126.968C118.91 127.314 125.508 137.4 136.421 136.967C134.87 140.05 137.112 148.173 130.243 144.926C123.114 143.22 117.959 136.967 110.146 136.967C109.203 138.69 109.8 141.076 109.635 143.115C117.877 144.403 123.805 151.339 132.045 152.62C131.27 155.44 130.501 158.597 128.181 160.317C121.477 158.692 116.241 152.698 109.104 152.869L107.833 158.774C114.616 158.948 118.998 164.922 125.093 166.716C125.261 169.207 123.025 171.432 121.737 173.655C116.326 172.037 112.199 167.409 106.017 167.75C105.931 165.43 107.314 162.797 106.792 160.317C99.8483 162.373 95.1921 155.949 90.0457 152.095C89.8974 139.483 76.5643 131.21 75.8602 119.396C75.7251 117.04 76.0856 114.526 77.1634 111.824C81.5455 101.734 80.169 88.6356 75.3638 79.2291C73.9039 76.7537 71.3167 74.7996 68.9057 73.3443C72.4331 80.7882 76.7318 89.5835 74.5863 98.7332C74.3377 105.799 70.151 112.585 70.1031 119.396C70.0869 121.824 70.6072 124.253 72.01 126.705C77.5965 136.724 87.6469 146.207 83.8678 158.772C82.8286 162.631 79.7343 165.615 78.9623 169.543C85.4976 174.932 91.677 181.005 100.349 181.348C103.438 179.383 101.722 170.669 108.078 174.688L117.359 179.31C116.683 181.784 114.603 184.001 112.719 185.705C109.198 183.998 105.763 181.953 101.372 182.119C100.078 183.487 98.9635 185.022 99.0623 186.985C102.152 187.491 104.986 188.79 107.567 190.589C106.369 193.159 104.034 194.769 101.886 196.737L94.6872 194.174C93.4851 195.887 90.9883 197.687 91.8646 199.566C93.489 200.259 95.2909 201.195 96.4868 202.395C93.3091 205.816 89.2814 208.016 85.4057 210.337C82.0674 199.473 71.0681 191.855 72.0124 179.29L71.5013 178.782C68.9157 181.677 69.7796 186.305 69.9464 190.061C73.0407 197.931 80.4214 204.01 81.5409 212.64C80.2485 214.861 77.3348 215.304 75.0997 216.244C75.3591 200.684 51.6567 188.883 66.8567 173.144C71.9259 165.437 80.4191 158.083 77.4097 147.472C74.32 137.228 63.3918 130.88 63.4883 119.396L63.5052 118.5C65.9943 106.524 73.5557 93.7801 67.3701 81.0395C65.6461 75.915 61.7944 70.0917 56.5553 67.9499C64.3661 76.8521 67.4627 91.377 62.9941 103.356C60.7421 108.121 57.6416 113.797 57.3305 119.398H57.3119C57.1459 122.323 57.7458 125.232 59.6412 127.991C65.572 137.572 75.8726 148.097 69.9471 160.584C63.2489 170.586 51.5687 180.759 58.0917 193.933C62.815 201.8 70.1216 209.651 68.1506 219.323L60.4209 221.886C65.5743 203.846 40.3209 193.246 50.8924 175.201C57.4192 165.537 69.0925 156.471 62.4846 143.645C58.5341 135.699 50.3713 130.996 50.6291 121.065L50.9102 119.397C53.5698 105.313 64.3221 91.9812 56.8039 76.9305C54.8283 72.4864 50.8801 67.9553 46.498 65.3877L46.2331 65.6514C54.9981 74.1177 57.6647 88.0475 52.9391 99.2452C50.7341 105.815 45.895 112.359 44.9114 119.4C44.4436 122.719 44.8381 126.159 46.7643 129.783C52.3462 138.585 62.1349 147.921 56.0265 159.3C49.5938 168.699 38.8548 177.844 43.1442 190.067C47.8691 200.76 57.735 210.947 52.4079 224.206L44.432 226C50.7851 213.078 41.2589 200.256 35.6786 189.049C28.89 172.97 50.264 165.271 50.6068 150.571C50.5257 141.083 40.3958 135.696 38.2549 126.973C33.8705 123.29 29.3262 128.438 24.0848 127.482C20.2154 128.257 14.2722 122.179 11.9623 128.767C9.21148 138.426 -3.32027 145.527 2.18746 156.983C7.42807 167.163 20.0401 174.608 15.8271 187.783C12.0549 200.089 -0.405823 211.806 7.3223 226C4.14767 224.976 -1.78082 226.936 -1.69513 221.886C-6.58833 204.698 14.2784 194.684 7.83339 177.505C4.83401 166.982 -8.83187 161.169 -5.82323 148.512C-3.59898 138.094 8.14143 130.811 6.49467 119.399C6.36111 118.443 6.12486 117.466 5.78748 116.446C1.40538 104.131 -7.53484 91.8137 -2.20622 77.441C-0.743202 73.3358 2.17896 69.8303 4.74677 66.161C-3.75648 70.6921 -8.04594 80.2731 -7.86991 90.0201C-8.24049 100.62 -0.377258 109.7 0.741432 119.399C1.18149 123.313 0.537613 127.322 -2.20622 131.574C-7.78422 139.111 -15.0792 147.057 -11.7347 156.981C-8.55472 166.991 3.98322 173.055 3.21041 184.69C3.12549 198.453 -12.9353 207.022 -8.38332 222.415L-16.377 219.832C-19.5509 206.155 -4.95315 199.157 -4.78561 186.501C-2.71964 171.948 -21.3605 166.548 -20.2419 152.362C-20.3222 141.583 -10.7936 134.756 -6.58524 125.69C-5.86337 123.483 -5.62328 121.398 -5.71978 119.4C-6.2355 109.375 -15.307 101.538 -13.8015 90.2669C-13.295 81.972 -10.4609 74.7011 -5.0481 68.4627C-12.5161 71.4501 -15.6011 80.0102 -17.664 87.195C-21.244 98.7155 -12.6983 109.078 -11.8413 119.4C-11.4614 123.958 -12.5801 128.49 -16.8873 133.124C-23.0745 140.384 -29.3489 149.544 -24.8818 159.302C-20.1515 170.068 -5.29053 178.449 -11.7363 191.877C-15.2529 200.345 -23.6736 206.755 -23.3277 216.757C-25.5589 215.816 -27.8735 214.878 -29.7696 213.173C-29.7696 200.433 -11.5695 192.475 -20.2411 179.049C-21.0093 181.698 -21.1745 185.298 -21.7759 188.291C-24.7853 196.077 -31.2241 202.309 -33.6337 210.358C-37.663 208.81 -41.876 205.556 -45.2274 202.136L-40.5851 199.307C-41.1009 197.594 -42.4728 196.142 -43.6725 194.688C-46.6873 194.266 -48.6669 196.235 -51.1521 197.007C-53.2991 195.122 -55.3713 193.411 -57.0829 191.102C-55.5419 186.732 -43.5011 190.346 -49.601 183.16C-53.7191 180.596 -57.8526 184.259 -61.4588 185.969L-66.3474 179.82C-62.139 177.257 -57.9414 173.657 -52.7069 174.689C-51.4169 177.003 -51.3273 180.404 -48.8421 181.612C-39.9945 181.441 -33.7256 174.777 -26.9432 169.559C-31.6704 162.555 -35.5182 152.885 -31.3191 144.415C-27.9545 135.927 -19.188 128.779 -18.7904 119.395C-18.7009 117.259 -19.0352 115.012 -19.9732 112.594C-24.6085 100.705 -26.2445 84.6373 -17.3969 74.1146C-22.2075 75.4015 -25.044 81.3717 -26.6784 85.905C-31.9969 97.514 -25.2702 108.269 -25.0378 119.394C-25.0061 121.395 -25.169 123.401 -25.6562 125.421C-30.2097 134.571 -37.5873 142.599 -38.7855 153.128C-44.0261 156.457 -48.3287 162.278 -55.7959 160.314C-56.0584 162.279 -55.4569 165.274 -54.7721 167.499C-60.6937 167.252 -64.7315 171.597 -69.7173 173.65C-72.3731 172.801 -73.0641 169.383 -74.0925 166.99C-68.2566 165.028 -64.0467 159.202 -57.3461 159.294C-56.5695 157.146 -57.7816 155.177 -58.1236 153.127C-66.4585 149.443 -79.6705 171.337 -80.7814 152.355C-72.4526 151.841 -67.1302 144.143 -58.8817 143.376L-58.6354 137.227C-67.9964 136.285 -74.0183 145.868 -83.3755 144.923L-85.4391 136.718C-74.6151 137.392 -68.1663 127.733 -57.858 127.213C-56.4884 125.42 -56.3232 122.768 -56.0591 120.291C-67.3109 118.831 -75.032 131.247 -86.974 127.476C-86.974 127.476 -87.3855 122.309 -87.6086 119.395H-87.5924C-87.6734 118.256 -87.7506 117.462 -87.7506 117.462C-77.1019 121.576 -67.7455 113.96 -58.6354 110.029C-56.3185 109.338 -52.7054 110.535 -51.6662 107.972C-51.7566 106.005 -48.1534 103.705 -51.1528 102.332C-64.4713 100.532 -73.3189 116.528 -86.9755 109.254L-88 107.198C-85.1589 68.5488 -63.2685 31.1827 -26.9432 12.7948C-12.2312 4.42303 6.04612 0.155669 24.4786 0.00422401C46.7234 -0.179509 69.2006 5.63075 85.9214 17.4165C102.159 27.3343 117.691 43.6788 126.12 60.2708C134.182 74.808 137.892 91.1202 139 108.486C124.912 119.086 115.46 98.5003 101.114 103.107C101.887 105.335 102.315 107.64 103.955 109.521C116.669 109.432 125.425 122.688 138.734 117.464L138.746 119.396ZM-23.083 71.796C-32.0163 65.9789 -43.3421 71.4562 -51.6678 74.6243C-52.4406 66.8383 -55.616 59.745 -62.237 54.6143C-62.8793 54.2961 -63.7672 53.6265 -64.567 53.5773C-65.0457 53.5473 -65.5012 53.7395 -65.8548 54.3491C-62.8539 72.7324 -74.8552 85.5598 -83.36 99.5051C-80.5282 101.81 -75.9786 101.465 -72.5437 100.788C-63.5279 97.198 -54.9397 90.9496 -44.2045 93.0913C-41.0298 87.7039 -35.6958 82.4856 -31.3222 78.2098C-28.6502 75.9073 -24.9791 74.4452 -23.083 71.796ZM4.23337 83.3412C4.06197 84.4482 4.31906 86.4216 6.03299 85.659C8.69962 81.982 13.4207 84.891 16.339 85.1501V84.1153C14.7378 81.6115 11.4435 80.3538 8.09821 80.4791C7.32616 80.506 6.54176 80.6183 5.78671 80.7928C4.66725 81.0403 3.88827 82.0605 4.23337 83.3412ZM46.2293 72.3242C43.8313 67.0205 38.3344 64.8741 33.3462 63.5919C30.9012 63.292 28.3635 63.0891 25.8466 63.0653C25.3749 63.0607 24.904 63.0545 24.4346 63.0653C17.3943 63.2067 10.6675 65.0064 6.55798 70.7766C5.96814 72.4056 3.37486 74.6935 5.78285 76.1533C11.1941 75.8089 17.3689 75.1332 20.9758 79.7573C20.9758 83.8663 23.6402 89.3329 19.1762 91.3001C15.4774 87.8899 11.0968 92.7515 7.07216 90.0148C5.17989 88.9016 3.98245 90.2008 3.20733 91.8252C2.08864 102.427 7.66354 114.128 17.6244 120.026C21.6614 121.476 27.0881 122.855 31.3011 120.798C41.4349 116.099 45.6325 105.331 47.5194 95.4091C47.2661 93.5211 47.3565 89.8418 44.696 89.7526C41.692 91.6445 37.3107 90.5268 34.1268 89.7526C32.2445 90.3576 32.1581 93.0998 30.0157 93.6195L28.7101 92.5824C27.5922 87.8861 26.9028 81.2133 31.2872 77.9638C36.1866 75.9965 41.9406 75.137 47.0075 76.6807C47.9532 75.0571 46.4933 73.7786 46.2293 72.3242ZM41.0589 80.7566C40.7185 80.7651 40.3873 80.782 40.0522 80.7928C38.2526 81.9882 33.0081 81.1287 34.9011 85.1501C38.1669 82.5778 42.7188 84.3806 45.9822 85.659C47.1889 85.0624 46.9272 83.8647 47.0067 82.8323C45.9591 80.8912 43.4553 80.709 41.0589 80.7566ZM78.452 44.599C72.095 44.263 66.7717 47.8562 60.9305 49.4821C60.4217 44.5329 64.1978 39.3061 65.0594 34.3376C55.615 34.9426 48.1347 40.603 40.3216 45.1248C38.5135 40.7744 36.7 36.4017 34.9042 32.0352L45.2102 22.2835L45.4742 20.9989L31.5536 20.2271C29.1556 16.0435 28.2106 11.0044 25.3765 7.15596C23.0573 11.5171 21.4993 16.1327 19.1824 20.49L5.27794 21.2642V22.2835L15.831 31.7715C14.5409 36.6485 13.3419 41.9475 10.1673 45.6337C3.984 41.946 -2.11126 37.9323 -8.89055 35.3716C-10.5219 34.8473 -12.8473 33.9948 -14.3072 35.1087C-12.1632 39.8135 -9.16077 44.8742 -9.66568 50.0095C-12.5014 49.4898 -14.7303 47.6794 -17.3946 46.9183C-20.5808 46.0527 -24.3615 44.3614 -27.4527 45.39C-22.2986 52.5694 -18.0917 60.0833 -16.6364 68.7233C0.461945 60.5061 20.4022 55.9866 41.1006 59.4982C50.8029 61.0358 59.7245 64.971 68.4 68.2129C68.7389 59.1531 74.4929 51.873 78.452 44.599ZM107.814 93.8639C116.568 96.171 125.349 105.667 134.618 99.5058C126.545 86.1672 114.53 73.8494 117.872 56.4063C118.221 55.2155 117.448 54.0101 116.337 53.841C111.1 55.972 107.044 61.1096 104.972 66.1595C104.12 69.1461 103.615 72.3211 102.415 75.1363C96.1409 71.8852 89.4466 68.7356 81.8034 69.4967C79.0472 69.8388 75.0959 70.0187 74.5871 72.8362C83.261 77.4518 90.3939 85.1547 95.7094 93.3573C99.4105 92.7561 103.949 93.2697 107.814 93.8639ZM16.0911 105.919L16.3382 107.465C19.6943 109.691 20.7265 113.464 25.3726 113.121C29.493 113.365 32.5842 109.521 34.6371 106.445C29.0614 105.678 22.2767 106.864 16.0911 105.919ZM20.7311 98.9962C20.8986 99.6811 20.3057 100.707 21.2422 101.053C23.9907 100.459 28.9695 102.509 30.5044 99.2598C29.4328 98.0644 27.6833 97.5217 25.8474 97.5217C24.0123 97.5217 22.1077 98.0544 20.7311 98.9962Z" fill="currentColor"/>
</svg>
