<svg width="8" height="9" viewBox="0 0 8 9" fill="none" xmlns="http://www.w3.org/2000/svg">
<path d="M3.18198 8.5C3.18198 8.77614 3.40583 9 3.68198 9C3.95812 9 4.18198 8.77614 4.18198 8.5L3.68198 8.5L3.18198 8.5ZM4.03553 0.146446C3.84027 -0.0488157 3.52369 -0.0488157 3.32842 0.146446L0.146443 3.32843C-0.0488195 3.52369 -0.0488195 3.84027 0.146443 4.03553C0.341705 4.2308 0.658287 4.2308 0.853549 4.03553L3.68198 1.20711L6.5104 4.03553C6.70567 4.2308 7.02225 4.2308 7.21751 4.03553C7.41277 3.84027 7.41277 3.52369 7.21751 3.32843L4.03553 0.146446ZM3.68198 8.5L4.18198 8.5L4.18198 0.5L3.68198 0.5L3.18198 0.5L3.18198 8.5L3.68198 8.5Z" fill="#423F4C"/>
</svg>
