<svg width="22" height="22" viewBox="0 0 22 22" fill="none" xmlns="http://www.w3.org/2000/svg">
<path d="M11.0009 21C11.0009 21 8.50064 18 10.0009 16C11.5011 14 12.0009 12 12.0009 12C12.0009 12 14.2032 12.8397 15.0009 14C16.2177 15.7699 15.0009 19.5 15.0009 19.5" stroke="#F0D793" stroke-width="2"/>
<path d="M10.6572 1.03809C11.5669 1.83827 12.5842 2.528 13.5732 3.16895C14.7126 3.90732 15.7959 4.57183 16.7754 5.31934C18.6925 6.78239 20 8.40419 20 11C20 16.6147 15.883 21 11 21C6.61764 21 2.85398 17.4676 2.12793 12.6846C2.62147 12.8705 3.09196 12.9853 3.54297 13.0205C4.51722 13.0967 5.34123 12.8045 5.99609 12.2324C6.61671 11.6902 7.03353 10.9433 7.33789 10.1797C7.64529 9.40844 7.87001 8.53575 8.0625 7.6709C8.46407 5.86659 8.72256 4.15318 9.22852 2.80176C9.47454 2.14471 9.74375 1.68421 10.0342 1.39648C10.2166 1.21588 10.4148 1.09509 10.6572 1.03809Z" stroke="#8E4A63" stroke-width="2"/>
</svg>
