<svg width="25" height="23" viewBox="0 0 25 23" fill="none" xmlns="http://www.w3.org/2000/svg">
<path d="M11.6675 0.201148C11.8674 -0.0670542 12.2693 -0.0670539 12.4692 0.201148L16.7587 5.95486C16.8193 6.03614 16.9032 6.09708 16.9992 6.1296L23.7968 8.43115C24.1137 8.53843 24.2379 8.92059 24.0446 9.19363L19.898 15.0512C19.8394 15.1339 19.8074 15.2325 19.8061 15.3339L19.7178 22.51C19.7137 22.8446 19.3886 23.0807 19.0692 22.9813L12.217 20.8477C12.1202 20.8176 12.0165 20.8176 11.9197 20.8477L5.0675 22.9813C4.7481 23.0807 4.42301 22.8446 4.4189 22.51L4.33058 15.3339C4.32933 15.2325 4.29729 15.1339 4.23871 15.0512L0.0921313 9.19363C-0.101156 8.92059 0.0230142 8.53843 0.339877 8.43115L7.1375 6.1296C7.23354 6.09708 7.31742 6.03614 7.37802 5.95486L11.6675 0.201148Z" fill="#F0D793"/>
</svg>
