<svg width="42" height="42" viewBox="0 0 42 42" fill="none" xmlns="http://www.w3.org/2000/svg">
<path d="M20.6384 7.25848C21.3777 7.68242 22.1618 8.228 22.7588 8.80616L22.5243 9.0406C21.3463 8.91601 20.1057 9.07151 18.989 9.08864C18.8645 8.96363 18.6136 8.77568 18.8473 8.61864L20.6384 7.25848ZM41.4667 21.8162C41.4824 22.3452 41.5324 22.7995 41.325 23.3408C39.173 23.9498 37.7594 21.6829 35.6714 22.0248L35.9074 23.1998C37.8392 23.263 39.0458 25.106 41.0415 25.0267C40.758 25.5902 41.168 27.0745 39.9118 26.4811C38.6079 26.1694 37.6652 25.0267 36.2364 25.0267C36.064 25.3417 36.1731 25.7777 36.1429 26.1502C37.6503 26.3855 38.7343 27.6529 40.2412 27.8869C40.0995 28.4022 39.959 28.9791 39.5346 29.2933C38.3086 28.9965 37.3511 27.9011 36.0459 27.9325L35.8135 29.0114C37.0539 29.0431 37.8553 30.1349 38.9699 30.4626C39.0006 30.9177 38.5917 31.3243 38.3562 31.7306C37.3666 31.4349 36.612 30.5891 35.4813 30.6515C35.4656 30.2277 35.7185 29.7465 35.6231 29.2933C34.3532 29.6691 33.5017 28.4952 32.5605 27.791C32.5334 25.4866 30.0951 23.9749 29.9663 21.8162C29.9416 21.3858 30.0076 20.9263 30.2047 20.4326C31.0061 18.5891 30.7543 16.1956 29.8756 14.4769C29.6086 14.0246 29.1354 13.6675 28.6945 13.4016C29.3396 14.7617 30.1257 16.3688 29.7334 18.0407C29.6879 19.3317 28.9222 20.5716 28.9135 21.8162C28.9105 22.2599 29.0057 22.7037 29.2622 23.1518C30.2839 24.9823 32.1219 26.7152 31.4307 29.011C31.2407 29.7161 30.6748 30.2614 30.5336 30.9791C31.7288 31.9639 32.8589 33.0736 34.4447 33.1361C35.0097 32.7771 34.6959 31.1849 35.8583 31.9192L37.5555 32.7639C37.4318 33.2159 37.0515 33.621 36.707 33.9323C36.063 33.6204 35.4349 33.2467 34.6319 33.2771C34.3951 33.527 34.1914 33.8075 34.2095 34.1662C34.7745 34.2587 35.2928 34.496 35.7648 34.8247C35.5457 35.2943 35.1186 35.5885 34.726 35.9481L33.4094 35.4798C33.1895 35.7928 32.7329 36.1216 32.8932 36.4651C33.1902 36.5916 33.5198 36.7627 33.7385 36.982C33.1573 37.6069 32.4208 38.009 31.712 38.4332C31.1015 36.4479 29.09 35.056 29.2627 32.7602L29.1692 32.6674C28.6963 33.1962 28.8543 34.042 28.8848 34.7283C29.4507 36.1663 30.8005 37.277 31.0052 38.8539C30.7689 39.2597 30.236 39.3406 29.8273 39.5124C29.8747 36.6693 25.5401 34.513 28.3198 31.6372C29.2468 30.229 30.8001 28.8851 30.2497 26.9464C29.6847 25.0745 27.6861 23.9146 27.7038 21.8162L27.7069 21.6525C28.1621 19.4642 29.5449 17.1356 28.4137 14.8077C28.0984 13.8713 27.394 12.8073 26.4359 12.4159C27.8643 14.0425 28.4306 16.6965 27.6134 18.8853C27.2016 19.7559 26.6346 20.7932 26.5777 21.8166H26.5743C26.5439 22.3511 26.6536 22.8826 27.0002 23.3866C28.0849 25.1374 29.9686 27.0606 28.885 29.3422C27.66 31.1697 25.524 33.0286 26.7169 35.4357C27.5807 36.8733 28.9169 38.3077 28.5564 40.075L27.1428 40.5433C28.0853 37.247 23.467 35.3103 25.4003 32.0129C26.5939 30.2472 28.7287 28.5906 27.5202 26.2471C26.7978 24.7951 25.305 23.9357 25.3521 22.1211L25.4035 21.8165C25.8899 19.243 27.8563 16.807 26.4814 14.0569C26.1201 13.2448 25.398 12.4169 24.5966 11.9477L24.5482 11.9959C26.1511 13.5429 26.6388 16.0882 25.7746 18.1342C25.3713 19.3347 24.4864 20.5305 24.3065 21.8169C24.2209 22.4234 24.2931 23.052 24.6454 23.7142C25.6661 25.3224 27.4563 27.0284 26.3392 29.1076C25.1628 30.825 23.1989 32.496 23.9833 34.7293C24.8474 36.6832 26.6516 38.5446 25.6774 40.9674L24.2188 41.2951C25.3807 38.9339 23.6385 36.5911 22.618 34.5433C21.3766 31.6054 25.2854 30.1986 25.3481 27.5126C25.3332 25.7789 23.4807 24.7945 23.0892 23.2008C22.2874 22.5278 21.4563 23.4684 20.4978 23.2938C19.7902 23.4352 18.7033 22.3247 18.2808 23.5285C17.7778 25.2933 15.486 26.5908 16.4933 28.6841C17.4516 30.5443 19.7581 31.9046 18.9876 34.312C18.2978 36.5606 16.019 38.7016 17.4323 41.2951C16.8517 41.108 15.7675 41.4662 15.7832 40.5434C14.8884 37.4027 18.7044 35.5729 17.5258 32.4339C16.9772 30.5112 14.4781 29.449 15.0283 27.1364C15.435 25.2328 17.5821 23.902 17.2809 21.8168C17.2565 21.6422 17.2133 21.4635 17.1516 21.2772C16.3502 19.0271 14.7153 16.7763 15.6897 14.1501C15.9573 13.4 16.4917 12.7595 16.9613 12.089C15.4062 12.917 14.6218 14.6676 14.654 16.4486C14.5862 18.3854 16.0242 20.0445 16.2288 21.8168C16.3093 22.532 16.1915 23.2644 15.6897 24.0414C14.6697 25.4185 13.3356 26.8705 13.9472 28.6838C14.5288 30.5129 16.8217 31.6209 16.6803 33.7469C16.6648 36.2617 13.7276 37.8275 14.5601 40.6399L13.0982 40.1681C12.5178 37.6689 15.1874 36.3902 15.218 34.0778C15.5959 31.4186 12.1869 30.432 12.3914 27.8398C12.3768 25.8702 14.1193 24.6229 14.8889 22.9662C15.0209 22.5631 15.0648 22.1821 15.0472 21.8169C14.9529 19.9852 13.2939 18.5531 13.5692 16.4937C13.6619 14.9781 14.1802 13.6495 15.17 12.5096C13.8043 13.0555 13.2401 14.6196 12.8629 15.9324C12.2082 18.0375 13.771 19.931 13.9277 21.817C13.9972 22.6499 13.7926 23.4779 13.0049 24.3245C11.8734 25.6511 10.726 27.3249 11.5429 29.1079C12.408 31.0752 15.1257 32.6064 13.9469 35.0601C13.3038 36.6074 11.7639 37.7786 11.8271 39.6062C11.4191 39.4343 10.9958 39.2629 10.649 38.9512C10.649 36.6234 13.9774 35.1694 12.3916 32.7161C12.2511 33.2002 12.2209 33.858 12.1109 34.4048C11.5605 35.8275 10.383 36.9663 9.94238 38.437C9.20551 38.1541 8.43504 37.5596 7.82214 36.9346L8.67111 36.4177C8.5768 36.1046 8.3259 35.8393 8.1065 35.5737C7.55515 35.4965 7.19315 35.8564 6.73866 35.9974C6.34601 35.653 5.96706 35.3403 5.65405 34.9185C5.93586 34.1199 8.13784 34.7803 7.02231 33.4673C6.26921 32.9989 5.51328 33.6681 4.85379 33.9805L3.95978 32.857C4.7294 32.3887 5.49705 31.7309 6.45431 31.9195C6.69023 32.3422 6.70661 32.9638 7.1611 33.1844C8.77912 33.1531 9.92557 31.9355 11.1659 30.982C10.3014 29.7022 9.59773 27.9354 10.3657 26.3877C10.981 24.8368 12.5842 23.5306 12.6569 21.8161C12.6732 21.4258 12.6121 21.0152 12.4406 20.5733C11.5929 18.401 11.2937 15.4651 12.9117 13.5423C12.032 13.7775 11.5132 14.8684 11.2143 15.6967C10.2417 17.8179 11.4719 19.7831 11.5144 21.8159C11.5202 22.1816 11.4904 22.548 11.4013 22.9172C10.5685 24.589 9.21935 26.0559 9.00022 27.9798C8.04183 28.588 7.25499 29.6517 5.88941 29.2928C5.8414 29.6518 5.95139 30.1991 6.07662 30.6057C4.99371 30.5605 4.25529 31.3545 3.34349 31.7296C2.8578 31.5745 2.73144 30.9499 2.54338 30.5127C3.61062 30.1541 4.38052 29.0896 5.6059 29.1065C5.74794 28.7139 5.52627 28.3541 5.46372 27.9795C3.93945 27.3064 1.52329 31.3069 1.32012 27.8385C2.84326 27.7447 3.81662 26.338 5.32508 26.1978L5.37012 25.0744C3.6582 24.9023 2.55693 26.6532 0.845721 26.4806L0.468323 24.9814C2.44779 25.1044 3.62714 23.3396 5.51229 23.2446C5.76276 22.9169 5.79298 22.4324 5.84126 21.9797C3.78358 21.7129 2.37155 23.9817 0.18764 23.2927C0.18764 23.2927 0.112386 22.3484 0.0715827 21.8161H0.0745477C0.0597229 21.6079 0.045604 21.4628 0.045604 21.4628C1.99302 22.2146 3.70409 20.8229 5.37012 20.1046C5.79382 19.9784 6.45459 20.1972 6.64463 19.7288C6.62811 19.3694 7.28704 18.9491 6.73852 18.6982C4.30287 18.3694 2.68485 21.2921 0.187358 19.9631L0 19.5874C0.519575 12.5253 4.52284 5.69774 11.1659 2.33788C13.8564 0.808183 17.1989 0.0284441 20.5698 0.000771817C24.6379 -0.0328001 28.7484 1.02886 31.8063 3.18238C34.7758 4.99456 37.6162 7.98105 39.1577 11.0128C40.632 13.669 41.3106 16.6496 41.5132 19.8228C38.9368 21.7596 37.2083 17.9981 34.5848 18.84C34.7261 19.247 34.8043 19.6682 35.1042 20.0119C37.4294 19.9956 39.0307 22.4178 41.4646 21.4632L41.4667 21.8162ZM11.8719 13.1187C10.2382 12.0558 8.16693 13.0566 6.64435 13.6355C6.50302 12.2128 5.92231 10.9167 4.71147 9.97921C4.594 9.92106 4.43163 9.79871 4.28536 9.78972C4.19783 9.78424 4.11452 9.81936 4.04986 9.93075C4.59866 13.2898 2.40388 15.6336 0.848545 18.1817C1.36643 18.6028 2.19845 18.5399 2.8266 18.4162C4.4754 17.7602 6.04599 16.6184 8.00922 17.0098C8.58979 16.0254 9.56526 15.0719 10.3651 14.2906C10.8537 13.8699 11.5251 13.6027 11.8719 13.1187ZM16.8674 15.2282C16.8361 15.4305 16.8831 15.7911 17.1965 15.6517C17.6842 14.9799 18.5476 15.5114 19.0812 15.5588V15.3697C18.7884 14.9122 18.186 14.6824 17.5742 14.7053C17.433 14.7102 17.2896 14.7307 17.1515 14.7626C16.9468 14.8078 16.8043 14.9942 16.8674 15.2282ZM24.5475 13.2152C24.109 12.2461 23.1037 11.8539 22.1915 11.6196C21.7443 11.5648 21.2803 11.5277 20.82 11.5234C20.7337 11.5225 20.6476 11.5214 20.5618 11.5234C19.2743 11.5492 18.0441 11.8781 17.2925 12.9324C17.1847 13.2301 16.7104 13.6481 17.1508 13.9149C18.1404 13.8519 19.2696 13.7285 19.9292 14.5734C19.9292 15.3242 20.4165 16.323 19.6001 16.6825C18.9237 16.0594 18.1226 16.9477 17.3866 16.4476C17.0405 16.2442 16.8215 16.4816 16.6798 16.7784C16.4752 18.7156 17.4947 20.8536 19.3163 21.9314C20.0546 22.1963 21.047 22.4483 21.8175 22.0724C23.6707 21.2139 24.4384 19.2462 24.7834 17.4333C24.7371 17.0883 24.7536 16.416 24.2671 16.3997C23.7177 16.7454 22.9165 16.5412 22.3342 16.3997C21.99 16.5103 21.9742 17.0113 21.5824 17.1063L21.3437 16.9168C21.1392 16.0587 21.0131 14.8394 21.8149 14.2457C22.7109 13.8862 23.7632 13.7292 24.6898 14.0112C24.8628 13.7145 24.5958 13.4809 24.5475 13.2152ZM23.602 14.756C23.5397 14.7575 23.4791 14.7606 23.4179 14.7626C23.0887 14.981 22.1297 14.824 22.4758 15.5588C23.0731 15.0887 23.9055 15.4181 24.5023 15.6517C24.723 15.5427 24.6751 15.3239 24.6897 15.1352C24.4981 14.7806 24.0402 14.7473 23.602 14.756ZM30.4403 8.14919C29.2778 8.08781 28.3043 8.74436 27.236 9.04145C27.143 8.13711 27.8335 7.18207 27.9911 6.27422C26.2639 6.38477 24.896 7.41904 23.4671 8.24527C23.1365 7.45036 22.8048 6.65138 22.4764 5.85352L24.3611 4.07168L24.4094 3.83696L21.8637 3.69593C21.4251 2.9315 21.2523 2.01073 20.734 1.30755C20.3099 2.10442 20.025 2.9478 19.6012 3.74397L17.0584 3.88542V4.07168L18.9883 5.80534C18.7524 6.69647 18.5331 7.66472 17.9526 8.33826C16.8218 7.66444 15.7071 6.93105 14.4673 6.46315C14.169 6.36735 13.7437 6.21158 13.4768 6.41511C13.8688 7.27478 14.4179 8.19948 14.3256 9.13781C13.807 9.04285 13.3994 8.71205 12.9121 8.57299C12.3295 8.41482 11.6381 8.10579 11.0727 8.29374C12.0153 9.60557 12.7846 10.9785 13.0508 12.5572C16.1777 11.0558 19.8243 10.2299 23.6096 10.8716C25.3839 11.1525 27.0155 11.8716 28.602 12.464C28.664 10.8085 29.7163 9.4783 30.4403 8.14919ZM35.81 17.151C37.4108 17.5725 39.0167 19.3077 40.7118 18.1819C39.2355 15.7446 37.0382 13.4939 37.6493 10.3066C37.7132 10.0891 37.5719 9.86881 37.3686 9.8379C36.4109 10.2273 35.6692 11.166 35.2903 12.0888C35.1344 12.6345 35.0421 13.2146 34.8225 13.729C33.6752 13.135 32.451 12.5595 31.0532 12.6985C30.5492 12.761 29.8266 12.7939 29.7335 13.3087C31.3198 14.1521 32.6242 15.5596 33.5963 17.0584C34.2732 16.9485 35.1032 17.0424 35.81 17.151ZM19.0359 19.3536L19.0811 19.6361C19.6949 20.0429 19.8836 20.7323 20.7333 20.6697C21.4868 20.7142 22.0521 20.0119 22.4276 19.4497C21.4079 19.3097 20.1671 19.5264 19.0359 19.3536ZM19.8845 18.0887C19.9151 18.2139 19.8067 18.4014 19.9779 18.4646C20.4806 18.356 21.3911 18.7307 21.6718 18.1369C21.4758 17.9185 21.1559 17.8193 20.8201 17.8193C20.4845 17.8193 20.1362 17.9167 19.8845 18.0887Z" fill="#467251"/>
</svg>
